<svg preserveAspectRatio="none" overflow="visible" style="display: block;" width="24" height="24" viewBox="0 0 24 24" fill="none" xmlns="http://www.w3.org/2000/svg">
<g id="laptop">
<path id="Vector" d="M20.0535 15.9865H3.94652M17.9996 4.9992C18.53 4.9992 19.0387 5.20991 19.4138 5.58499C19.7888 5.96006 19.9995 6.46876 19.9995 6.9992V15.5252C19.9994 15.8366 20.072 16.1438 20.2115 16.4222L21.2794 18.5492C21.3565 18.7022 21.393 18.8724 21.3854 19.0435C21.3778 19.2147 21.3264 19.381 21.236 19.5266C21.1457 19.6721 21.0195 19.792 20.8695 19.8748C20.7195 19.9575 20.5508 20.0004 20.3795 19.9992H3.62052C3.44922 20.0004 3.28049 19.9575 3.1305 19.8748C2.98051 19.792 2.85429 19.6721 2.76395 19.5266C2.67361 19.381 2.62218 19.2147 2.61458 19.0435C2.60699 18.8724 2.64349 18.7022 2.72058 18.5492L3.78851 16.4222C3.92804 16.1438 4.00063 15.8366 4.0005 15.5252V6.9992C4.0005 6.46876 4.2112 5.96006 4.58625 5.58499C4.9613 5.20991 5.46997 4.9992 6.00037 4.9992H17.9996Z" stroke="#02565F" stroke-width="2" stroke-linecap="round"/>
</g>
</svg>
